<mxfile host="65bd71144e">
    <diagram id="am9PgdyDm5ntJJdIKiQN" name="Page-1">
        <mxGraphModel dx="2881" dy="879" grid="1" gridSize="10" guides="1" tooltips="1" connect="1" arrows="1" fold="1" page="1" pageScale="1" pageWidth="850" pageHeight="1100" math="0" shadow="0">
            <root>
                <mxCell id="0"/>
                <mxCell id="1" parent="0"/>
                <mxCell id="216" value="" style="rounded=0;whiteSpace=wrap;html=1;fontColor=#333333;fillColor=#f5f5f5;strokeColor=#666666;dashed=1;" parent="1" vertex="1">
                    <mxGeometry x="40" y="260" width="850" height="289" as="geometry"/>
                </mxCell>
                <mxCell id="2" value="" style="verticalLabelPosition=bottom;html=1;verticalAlign=top;align=center;strokeColor=none;fillColor=#00BEF2;shape=mxgraph.azure.virtual_network;pointerEvents=1;" parent="1" vertex="1">
                    <mxGeometry x="50" y="275" width="50" height="27.500000000000004" as="geometry"/>
                </mxCell>
                <mxCell id="3" value="Virtual Network&lt;br&gt;192.168.0.0/25" style="text;html=1;strokeColor=none;fillColor=none;align=left;verticalAlign=middle;whiteSpace=wrap;rounded=0;" parent="1" vertex="1">
                    <mxGeometry x="100" y="273.75" width="210" height="30" as="geometry"/>
                </mxCell>
                <mxCell id="226" value="" style="group" parent="1" vertex="1" connectable="0">
                    <mxGeometry x="80" y="320" width="250" height="150" as="geometry"/>
                </mxCell>
                <mxCell id="218" value="" style="rounded=0;whiteSpace=wrap;html=1;fillColor=#E8EFFC;strokeColor=#6c8ebf;dashed=1;" parent="226" vertex="1">
                    <mxGeometry width="250" height="150" as="geometry"/>
                </mxCell>
                <mxCell id="219" value="Private Link Subnet&lt;br&gt;192.168.0.0/26" style="text;html=1;strokeColor=none;fillColor=none;align=left;verticalAlign=middle;whiteSpace=wrap;rounded=0;" parent="226" vertex="1">
                    <mxGeometry x="42.37980769230769" y="5" width="186.89903846153845" height="30" as="geometry"/>
                </mxCell>
                <mxCell id="324" value="&lt;span style=&quot;color: rgb(0, 0, 0);&quot;&gt;Private Link Service&lt;/span&gt;&lt;br style=&quot;color: rgb(63, 63, 63); scrollbar-color: rgb(226, 226, 226) rgb(251, 251, 251);&quot;&gt;&lt;span style=&quot;color: rgb(0, 0, 0);&quot;&gt;SNAT IP:192.168.0.4,&lt;span style=&quot;color: rgb(0, 0, 0);&quot;&gt;192.168.0.5&lt;/span&gt;&lt;br&gt;&lt;/span&gt;" style="image;aspect=fixed;html=1;points=[];align=center;fontSize=12;image=img/lib/azure2/networking/Private_Link_Service.svg;labelBackgroundColor=none;" parent="226" vertex="1">
                    <mxGeometry x="96.32999999999998" y="55" width="69" height="40" as="geometry"/>
                </mxCell>
                <mxCell id="288" value="" style="rounded=0;whiteSpace=wrap;html=1;fontColor=#333333;fillColor=#f5f5f5;strokeColor=#666666;dashed=1;" parent="1" vertex="1">
                    <mxGeometry x="-550" y="260" width="447.95" height="290" as="geometry"/>
                </mxCell>
                <mxCell id="289" value="" style="verticalLabelPosition=bottom;html=1;verticalAlign=top;align=center;strokeColor=none;fillColor=#00BEF2;shape=mxgraph.azure.virtual_network;pointerEvents=1;" parent="1" vertex="1">
                    <mxGeometry x="-541" y="276.25" width="50" height="27.500000000000004" as="geometry"/>
                </mxCell>
                <mxCell id="290" value="Virtual Network&lt;br&gt;10.0.0.0/25" style="text;html=1;strokeColor=none;fillColor=none;align=left;verticalAlign=middle;whiteSpace=wrap;rounded=0;" parent="1" vertex="1">
                    <mxGeometry x="-491" y="275" width="210" height="30" as="geometry"/>
                </mxCell>
                <mxCell id="228" value="" style="rounded=0;whiteSpace=wrap;html=1;fillColor=#E8EFFC;strokeColor=#6c8ebf;dashed=1;" parent="1" vertex="1">
                    <mxGeometry x="350" y="320" width="250" height="150" as="geometry"/>
                </mxCell>
                <mxCell id="229" value="" style="shape=image;verticalLabelPosition=bottom;labelBackgroundColor=default;verticalAlign=top;aspect=fixed;imageAspect=0;image=data:image/svg+xml,PHN2ZyB4bWxucz0iaHR0cDovL3d3dy53My5vcmcvMjAwMC9zdmciIHZpZXdCb3g9IjAgMCAxOCAxOCIgaGVpZ2h0PSIxOCIgd2lkdGg9IjE4Ij48ZGVmcz48bGluZWFyR3JhZGllbnQgZ3JhZGllbnRVbml0cz0idXNlclNwYWNlT25Vc2UiIHkyPSI3LjY5NSIgeDI9IjkuMDMzIiB5MT0iMTAuMzA1IiB4MT0iOS4wMzMiIGlkPSJiY2ViNjBkZC04YjhjLTQwOTgtOTRmOC1hZWI0ZGIyZWRhZWYiPjxzdG9wIHN0b3AtY29sb3I9IiM1ZTk2MjQiIG9mZnNldD0iMCIvPjxzdG9wIHN0b3AtY29sb3I9IiM2ZmIwMmEiIG9mZnNldD0iMC4yNDEiLz48c3RvcCBzdG9wLWNvbG9yPSIjN2NjNTJmIiBvZmZzZXQ9IjAuNTAxIi8+PHN0b3Agc3RvcC1jb2xvcj0iIzgzZDIzMiIgb2Zmc2V0PSIwLjc1NiIvPjxzdG9wIHN0b3AtY29sb3I9IiM4NmQ2MzMiIG9mZnNldD0iMSIvPjwvbGluZWFyR3JhZGllbnQ+PC9kZWZzPjxnIGlkPSJhYzc1YzIxZS0yYTkzLTQ2NGYtODA0OC1mMTUxOGRhYjhiNzUiPjxnPjxwYXRoIGZpbGw9InVybCgjYmNlYjYwZGQtOGI4Yy00MDk4LTk0ZjgtYWViNGRiMmVkYWVmKSIgZD0iTTkuMDMxLDcuN0ExLjMwNSwxLjMwNSwwLDEsMCwxMC4zMzgsOSwxLjMwNSwxLjMwNSwwLDAsMCw5LjAzMSw3LjdaIi8+PGc+PHBhdGggZmlsbD0iIzUwZTZmZiIgdHJhbnNmb3JtPSJ0cmFuc2xhdGUoMTMuNjUzIDE2LjQ4NSkgcm90YXRlKDEzNC45MTkpIiBkPSJNMi45NjEsNy4zNzRoLjg4OGEuMjg0LjI4NCwwLDAsMSwuMjg0LjI4NHY2LjU1MWEuNTY4LjU2OCwwLDAsMS0uNTY4LjU2OEgyLjY3N2EwLDAsMCwwLDEsMCwwVjcuNjU5QS4yODQuMjg0LDAsMCwxLDIuOTYxLDcuMzc0WiIvPjxwYXRoIGZpbGw9IiMxNDkwZGYiIHRyYW5zZm9ybT0idHJhbnNsYXRlKDUuODQ3IC0wLjM1OCkgcm90YXRlKDQ0LjkxOSkiIGQ9Ik0yLjkxMywzLjI0NEgzLjhhLjI4NC4yODQsMCwwLDEsLjI4NC4yODR2Ny4wMTVhMCwwLDAsMCwxLDAsMEgzLjJhLjU2OC41NjgsMCwwLDEtLjU2OC0uNTY4VjMuNTI4YS4yODQuMjg0LDAsMCwxLC4yODQtLjI4NFoiLz48cGF0aCBmaWxsPSIjNTBlNmZmIiB0cmFuc2Zvcm09InRyYW5zbGF0ZSgxMi4xMzIgLTcuMDc5KSByb3RhdGUoNDUuMDgxKSIgZD0iTTEzLjg2Nyw3LjM3NGguODg4YS41NjguNTY4LDAsMCwxLC41NjguNTY4djYuNTUxYS4yODQuMjg0LDAsMCwxLS4yODQuMjg0aC0uODg4YS4yODQuMjg0LDAsMCwxLS4yODQtLjI4NFY3LjM3NGEwLDAsMCwwLDEsMCwwWiIvPjxwYXRoIGZpbGw9IiMxNDkwZGYiIHRyYW5zZm9ybT0idHJhbnNsYXRlKDI5Ljg3OSAxLjQzNSkgcm90YXRlKDEzNS4wODEpIiBkPSJNMTQuNDgzLDMuMjQ0aC44ODhhMCwwLDAsMCwxLDAsMHY3LjAxNWEuMjg0LjI4NCwwLDAsMS0uMjg0LjI4NEgxNC4yYS4yODQuMjg0LDAsMCwxLS4yODQtLjI4NFYzLjgxMmEuNTY4LjU2OCwwLDAsMSwuNTY4LS41NjhaIi8+PC9nPjwvZz48L2c+PC9zdmc+;" parent="1" vertex="1">
                    <mxGeometry x="352.22222222222223" y="320" width="40" height="40" as="geometry"/>
                </mxCell>
                <mxCell id="230" value="Firewall Subnet&lt;br&gt;192.168.0.64/26" style="text;html=1;strokeColor=none;fillColor=none;align=left;verticalAlign=middle;whiteSpace=wrap;rounded=0;" parent="1" vertex="1">
                    <mxGeometry x="396.6666666666667" y="325" width="233.33333333333334" height="30" as="geometry"/>
                </mxCell>
                <mxCell id="250" value="" style="endArrow=classic;html=1;" parent="1" edge="1">
                    <mxGeometry width="50" height="50" relative="1" as="geometry">
                        <mxPoint x="246" y="396" as="sourcePoint"/>
                        <mxPoint x="450" y="396" as="targetPoint"/>
                        <Array as="points"/>
                    </mxGeometry>
                </mxCell>
                <mxCell id="325" value="Private Link" style="image;aspect=fixed;html=1;points=[];align=center;fontSize=12;image=img/lib/azure2/networking/Private_Link.svg;" parent="1" vertex="1">
                    <mxGeometry x="-66" y="349" width="72" height="66" as="geometry"/>
                </mxCell>
                <mxCell id="326" value="" style="endArrow=classic;html=1;" parent="1" edge="1">
                    <mxGeometry width="50" height="50" relative="1" as="geometry">
                        <mxPoint x="10" y="395" as="sourcePoint"/>
                        <mxPoint x="176" y="395" as="targetPoint"/>
                        <Array as="points"/>
                    </mxGeometry>
                </mxCell>
                <mxCell id="301" value="" style="rounded=0;whiteSpace=wrap;html=1;fillColor=#E8EFFC;strokeColor=#6c8ebf;dashed=1;" parent="1" vertex="1">
                    <mxGeometry x="-500" y="318.5" width="357.95" height="150" as="geometry"/>
                </mxCell>
                <mxCell id="302" value="" style="shape=image;verticalLabelPosition=bottom;labelBackgroundColor=default;verticalAlign=top;aspect=fixed;imageAspect=0;image=data:image/svg+xml,PHN2ZyB4bWxucz0iaHR0cDovL3d3dy53My5vcmcvMjAwMC9zdmciIHZpZXdCb3g9IjAgMCAxOCAxOCIgaGVpZ2h0PSIxOCIgd2lkdGg9IjE4Ij48ZGVmcz48bGluZWFyR3JhZGllbnQgZ3JhZGllbnRVbml0cz0idXNlclNwYWNlT25Vc2UiIHkyPSI3LjY5NSIgeDI9IjkuMDMzIiB5MT0iMTAuMzA1IiB4MT0iOS4wMzMiIGlkPSJiY2ViNjBkZC04YjhjLTQwOTgtOTRmOC1hZWI0ZGIyZWRhZWYiPjxzdG9wIHN0b3AtY29sb3I9IiM1ZTk2MjQiIG9mZnNldD0iMCIvPjxzdG9wIHN0b3AtY29sb3I9IiM2ZmIwMmEiIG9mZnNldD0iMC4yNDEiLz48c3RvcCBzdG9wLWNvbG9yPSIjN2NjNTJmIiBvZmZzZXQ9IjAuNTAxIi8+PHN0b3Agc3RvcC1jb2xvcj0iIzgzZDIzMiIgb2Zmc2V0PSIwLjc1NiIvPjxzdG9wIHN0b3AtY29sb3I9IiM4NmQ2MzMiIG9mZnNldD0iMSIvPjwvbGluZWFyR3JhZGllbnQ+PC9kZWZzPjxnIGlkPSJhYzc1YzIxZS0yYTkzLTQ2NGYtODA0OC1mMTUxOGRhYjhiNzUiPjxnPjxwYXRoIGZpbGw9InVybCgjYmNlYjYwZGQtOGI4Yy00MDk4LTk0ZjgtYWViNGRiMmVkYWVmKSIgZD0iTTkuMDMxLDcuN0ExLjMwNSwxLjMwNSwwLDEsMCwxMC4zMzgsOSwxLjMwNSwxLjMwNSwwLDAsMCw5LjAzMSw3LjdaIi8+PGc+PHBhdGggZmlsbD0iIzUwZTZmZiIgdHJhbnNmb3JtPSJ0cmFuc2xhdGUoMTMuNjUzIDE2LjQ4NSkgcm90YXRlKDEzNC45MTkpIiBkPSJNMi45NjEsNy4zNzRoLjg4OGEuMjg0LjI4NCwwLDAsMSwuMjg0LjI4NHY2LjU1MWEuNTY4LjU2OCwwLDAsMS0uNTY4LjU2OEgyLjY3N2EwLDAsMCwwLDEsMCwwVjcuNjU5QS4yODQuMjg0LDAsMCwxLDIuOTYxLDcuMzc0WiIvPjxwYXRoIGZpbGw9IiMxNDkwZGYiIHRyYW5zZm9ybT0idHJhbnNsYXRlKDUuODQ3IC0wLjM1OCkgcm90YXRlKDQ0LjkxOSkiIGQ9Ik0yLjkxMywzLjI0NEgzLjhhLjI4NC4yODQsMCwwLDEsLjI4NC4yODR2Ny4wMTVhMCwwLDAsMCwxLDAsMEgzLjJhLjU2OC41NjgsMCwwLDEtLjU2OC0uNTY4VjMuNTI4YS4yODQuMjg0LDAsMCwxLC4yODQtLjI4NFoiLz48cGF0aCBmaWxsPSIjNTBlNmZmIiB0cmFuc2Zvcm09InRyYW5zbGF0ZSgxMi4xMzIgLTcuMDc5KSByb3RhdGUoNDUuMDgxKSIgZD0iTTEzLjg2Nyw3LjM3NGguODg4YS41NjguNTY4LDAsMCwxLC41NjguNTY4djYuNTUxYS4yODQuMjg0LDAsMCwxLS4yODQuMjg0aC0uODg4YS4yODQuMjg0LDAsMCwxLS4yODQtLjI4NFY3LjM3NGEwLDAsMCwwLDEsMCwwWiIvPjxwYXRoIGZpbGw9IiMxNDkwZGYiIHRyYW5zZm9ybT0idHJhbnNsYXRlKDI5Ljg3OSAxLjQzNSkgcm90YXRlKDEzNS4wODEpIiBkPSJNMTQuNDgzLDMuMjQ0aC44ODhhMCwwLDAsMCwxLDAsMHY3LjAxNWEuMjg0LjI4NCwwLDAsMS0uMjg0LjI4NEgxNC4yYS4yODQuMjg0LDAsMCwxLS4yODQtLjI4NFYzLjgxMmEuNTY4LjU2OCwwLDAsMSwuNTY4LS41NjhaIi8+PC9nPjwvZz48L2c+PC9zdmc+;" parent="1" vertex="1">
                    <mxGeometry x="-496.0004120879121" y="315" width="40" height="40" as="geometry"/>
                </mxCell>
                <mxCell id="303" value="Client Subnet&lt;br&gt;10.0.0.0/28" style="text;html=1;strokeColor=none;fillColor=none;align=left;verticalAlign=middle;whiteSpace=wrap;rounded=0;" parent="1" vertex="1">
                    <mxGeometry x="-449.00865384615383" y="320" width="246.70673076923077" height="30" as="geometry"/>
                </mxCell>
                <mxCell id="328" value="" style="endArrow=classic;html=1;" parent="1" edge="1">
                    <mxGeometry width="50" height="50" relative="1" as="geometry">
                        <mxPoint x="-201" y="394" as="sourcePoint"/>
                        <mxPoint x="-70" y="394" as="targetPoint"/>
                        <Array as="points"/>
                    </mxGeometry>
                </mxCell>
                <mxCell id="304" value="Client VM&lt;br&gt;10.0.0.4" style="aspect=fixed;html=1;points=[];align=center;image;fontSize=12;image=img/lib/azure2/compute/Virtual_Machine.svg;labelBackgroundColor=none;" parent="1" vertex="1">
                    <mxGeometry x="-402.0035130494506" y="367.5" width="53.91" height="50" as="geometry"/>
                </mxCell>
                <mxCell id="329" value="" style="shape=image;verticalLabelPosition=bottom;labelBackgroundColor=default;verticalAlign=top;aspect=fixed;imageAspect=0;image=data:image/svg+xml,PHN2ZyB4bWxucz0iaHR0cDovL3d3dy53My5vcmcvMjAwMC9zdmciIHZpZXdCb3g9IjAgMCAxOCAxOCIgaGVpZ2h0PSIxOCIgd2lkdGg9IjE4Ij48ZGVmcz48bGluZWFyR3JhZGllbnQgZ3JhZGllbnRVbml0cz0idXNlclNwYWNlT25Vc2UiIHkyPSI3LjY5NSIgeDI9IjkuMDMzIiB5MT0iMTAuMzA1IiB4MT0iOS4wMzMiIGlkPSJiY2ViNjBkZC04YjhjLTQwOTgtOTRmOC1hZWI0ZGIyZWRhZWYiPjxzdG9wIHN0b3AtY29sb3I9IiM1ZTk2MjQiIG9mZnNldD0iMCIvPjxzdG9wIHN0b3AtY29sb3I9IiM2ZmIwMmEiIG9mZnNldD0iMC4yNDEiLz48c3RvcCBzdG9wLWNvbG9yPSIjN2NjNTJmIiBvZmZzZXQ9IjAuNTAxIi8+PHN0b3Agc3RvcC1jb2xvcj0iIzgzZDIzMiIgb2Zmc2V0PSIwLjc1NiIvPjxzdG9wIHN0b3AtY29sb3I9IiM4NmQ2MzMiIG9mZnNldD0iMSIvPjwvbGluZWFyR3JhZGllbnQ+PC9kZWZzPjxnIGlkPSJhYzc1YzIxZS0yYTkzLTQ2NGYtODA0OC1mMTUxOGRhYjhiNzUiPjxnPjxwYXRoIGZpbGw9InVybCgjYmNlYjYwZGQtOGI4Yy00MDk4LTk0ZjgtYWViNGRiMmVkYWVmKSIgZD0iTTkuMDMxLDcuN0ExLjMwNSwxLjMwNSwwLDEsMCwxMC4zMzgsOSwxLjMwNSwxLjMwNSwwLDAsMCw5LjAzMSw3LjdaIi8+PGc+PHBhdGggZmlsbD0iIzUwZTZmZiIgdHJhbnNmb3JtPSJ0cmFuc2xhdGUoMTMuNjUzIDE2LjQ4NSkgcm90YXRlKDEzNC45MTkpIiBkPSJNMi45NjEsNy4zNzRoLjg4OGEuMjg0LjI4NCwwLDAsMSwuMjg0LjI4NHY2LjU1MWEuNTY4LjU2OCwwLDAsMS0uNTY4LjU2OEgyLjY3N2EwLDAsMCwwLDEsMCwwVjcuNjU5QS4yODQuMjg0LDAsMCwxLDIuOTYxLDcuMzc0WiIvPjxwYXRoIGZpbGw9IiMxNDkwZGYiIHRyYW5zZm9ybT0idHJhbnNsYXRlKDUuODQ3IC0wLjM1OCkgcm90YXRlKDQ0LjkxOSkiIGQ9Ik0yLjkxMywzLjI0NEgzLjhhLjI4NC4yODQsMCwwLDEsLjI4NC4yODR2Ny4wMTVhMCwwLDAsMCwxLDAsMEgzLjJhLjU2OC41NjgsMCwwLDEtLjU2OC0uNTY4VjMuNTI4YS4yODQuMjg0LDAsMCwxLC4yODQtLjI4NFoiLz48cGF0aCBmaWxsPSIjNTBlNmZmIiB0cmFuc2Zvcm09InRyYW5zbGF0ZSgxMi4xMzIgLTcuMDc5KSByb3RhdGUoNDUuMDgxKSIgZD0iTTEzLjg2Nyw3LjM3NGguODg4YS41NjguNTY4LDAsMCwxLC41NjguNTY4djYuNTUxYS4yODQuMjg0LDAsMCwxLS4yODQuMjg0aC0uODg4YS4yODQuMjg0LDAsMCwxLS4yODQtLjI4NFY3LjM3NGEwLDAsMCwwLDEsMCwwWiIvPjxwYXRoIGZpbGw9IiMxNDkwZGYiIHRyYW5zZm9ybT0idHJhbnNsYXRlKDI5Ljg3OSAxLjQzNSkgcm90YXRlKDEzNS4wODEpIiBkPSJNMTQuNDgzLDMuMjQ0aC44ODhhMCwwLDAsMCwxLDAsMHY3LjAxNWEuMjg0LjI4NCwwLDAsMS0uMjg0LjI4NEgxNC4yYS4yODQuMjg0LDAsMCwxLS4yODQtLjI4NFYzLjgxMmEuNTY4LjU2OCwwLDAsMSwuNTY4LS41NjhaIi8+PC9nPjwvZz48L2c+PC9zdmc+;" parent="1" vertex="1">
                    <mxGeometry x="81.0022222222222" y="320" width="40" height="40" as="geometry"/>
                </mxCell>
                <mxCell id="331" value="Private Endpoint&lt;br&gt;10.0.0.5" style="image;aspect=fixed;html=1;points=[];align=center;fontSize=12;image=img/lib/azure2/other/Private_Endpoints.svg;labelBackgroundColor=none;" parent="1" vertex="1">
                    <mxGeometry x="-273" y="350.32" width="68" height="64.68" as="geometry"/>
                </mxCell>
                <mxCell id="332" value="" style="endArrow=classic;html=1;" parent="1" edge="1">
                    <mxGeometry width="50" height="50" relative="1" as="geometry">
                        <mxPoint x="-346" y="394" as="sourcePoint"/>
                        <mxPoint x="-274" y="394" as="targetPoint"/>
                        <Array as="points"/>
                    </mxGeometry>
                </mxCell>
                <mxCell id="333" value="&lt;b&gt;利用者（Consumer）&lt;/b&gt;" style="text;html=1;strokeColor=none;fillColor=none;align=left;verticalAlign=middle;whiteSpace=wrap;rounded=0;fontSize=15;" parent="1" vertex="1">
                    <mxGeometry x="-550" y="230" width="210" height="30" as="geometry"/>
                </mxCell>
                <mxCell id="334" value="&lt;b&gt;アプリの提供者（Provider）&lt;/b&gt;" style="text;html=1;strokeColor=none;fillColor=none;align=left;verticalAlign=middle;whiteSpace=wrap;rounded=0;fontSize=15;" parent="1" vertex="1">
                    <mxGeometry x="40" y="230" width="210" height="30" as="geometry"/>
                </mxCell>
                <mxCell id="336" value="Azure Firewall&lt;br&gt;&lt;span style=&quot;color: rgb(0, 0, 0); text-align: left; text-wrap-mode: wrap;&quot;&gt;192.168.0.68&lt;/span&gt;&lt;span style=&quot;text-align: left;&quot;&gt;&lt;/span&gt;" style="image;sketch=0;aspect=fixed;html=1;points=[];align=center;fontSize=12;image=img/lib/mscae/Azure_Firewall.svg;labelBackgroundColor=none;" parent="1" vertex="1">
                    <mxGeometry x="450" y="365" width="50" height="50" as="geometry"/>
                </mxCell>
                <mxCell id="340" value="" style="group" parent="1" vertex="1" connectable="0">
                    <mxGeometry x="620" y="320" width="250" height="150" as="geometry"/>
                </mxCell>
                <mxCell id="341" value="" style="rounded=0;whiteSpace=wrap;html=1;fillColor=#E8EFFC;strokeColor=#6c8ebf;dashed=1;" parent="340" vertex="1">
                    <mxGeometry width="250" height="150" as="geometry"/>
                </mxCell>
                <mxCell id="342" value="Server Subnet&lt;br&gt;192.168.0.128/26" style="text;html=1;strokeColor=none;fillColor=none;align=left;verticalAlign=middle;whiteSpace=wrap;rounded=0;" parent="340" vertex="1">
                    <mxGeometry x="41.247086247086244" y="5" width="181.23543123543124" height="30" as="geometry"/>
                </mxCell>
                <mxCell id="343" value="Server VM&lt;br&gt;&lt;span style=&quot;color: rgb(0, 0, 0); text-align: left; text-wrap-mode: wrap;&quot;&gt;192.168.0.132&lt;/span&gt;" style="aspect=fixed;html=1;points=[];align=center;image;fontSize=12;image=img/lib/azure2/compute/Virtual_Machine.svg;labelBackgroundColor=none;" parent="340" vertex="1">
                    <mxGeometry x="106.9556832056832" y="59" width="40.84090909090908" height="37.878787878787875" as="geometry"/>
                </mxCell>
                <mxCell id="344" value="Port:80" style="text;html=1;strokeColor=none;fillColor=none;align=left;verticalAlign=middle;whiteSpace=wrap;rounded=0;" parent="340" vertex="1">
                    <mxGeometry x="172" y="71" width="68" height="30" as="geometry"/>
                </mxCell>
                <mxCell id="345" value="" style="shape=image;verticalLabelPosition=bottom;labelBackgroundColor=default;verticalAlign=top;aspect=fixed;imageAspect=0;image=data:image/svg+xml,PHN2ZyB4bWxucz0iaHR0cDovL3d3dy53My5vcmcvMjAwMC9zdmciIHZpZXdCb3g9IjAgMCAxOCAxOCIgaGVpZ2h0PSIxOCIgd2lkdGg9IjE4Ij48ZGVmcz48bGluZWFyR3JhZGllbnQgZ3JhZGllbnRVbml0cz0idXNlclNwYWNlT25Vc2UiIHkyPSI3LjY5NSIgeDI9IjkuMDMzIiB5MT0iMTAuMzA1IiB4MT0iOS4wMzMiIGlkPSJiY2ViNjBkZC04YjhjLTQwOTgtOTRmOC1hZWI0ZGIyZWRhZWYiPjxzdG9wIHN0b3AtY29sb3I9IiM1ZTk2MjQiIG9mZnNldD0iMCIvPjxzdG9wIHN0b3AtY29sb3I9IiM2ZmIwMmEiIG9mZnNldD0iMC4yNDEiLz48c3RvcCBzdG9wLWNvbG9yPSIjN2NjNTJmIiBvZmZzZXQ9IjAuNTAxIi8+PHN0b3Agc3RvcC1jb2xvcj0iIzgzZDIzMiIgb2Zmc2V0PSIwLjc1NiIvPjxzdG9wIHN0b3AtY29sb3I9IiM4NmQ2MzMiIG9mZnNldD0iMSIvPjwvbGluZWFyR3JhZGllbnQ+PC9kZWZzPjxnIGlkPSJhYzc1YzIxZS0yYTkzLTQ2NGYtODA0OC1mMTUxOGRhYjhiNzUiPjxnPjxwYXRoIGZpbGw9InVybCgjYmNlYjYwZGQtOGI4Yy00MDk4LTk0ZjgtYWViNGRiMmVkYWVmKSIgZD0iTTkuMDMxLDcuN0ExLjMwNSwxLjMwNSwwLDEsMCwxMC4zMzgsOSwxLjMwNSwxLjMwNSwwLDAsMCw5LjAzMSw3LjdaIi8+PGc+PHBhdGggZmlsbD0iIzUwZTZmZiIgdHJhbnNmb3JtPSJ0cmFuc2xhdGUoMTMuNjUzIDE2LjQ4NSkgcm90YXRlKDEzNC45MTkpIiBkPSJNMi45NjEsNy4zNzRoLjg4OGEuMjg0LjI4NCwwLDAsMSwuMjg0LjI4NHY2LjU1MWEuNTY4LjU2OCwwLDAsMS0uNTY4LjU2OEgyLjY3N2EwLDAsMCwwLDEsMCwwVjcuNjU5QS4yODQuMjg0LDAsMCwxLDIuOTYxLDcuMzc0WiIvPjxwYXRoIGZpbGw9IiMxNDkwZGYiIHRyYW5zZm9ybT0idHJhbnNsYXRlKDUuODQ3IC0wLjM1OCkgcm90YXRlKDQ0LjkxOSkiIGQ9Ik0yLjkxMywzLjI0NEgzLjhhLjI4NC4yODQsMCwwLDEsLjI4NC4yODR2Ny4wMTVhMCwwLDAsMCwxLDAsMEgzLjJhLjU2OC41NjgsMCwwLDEtLjU2OC0uNTY4VjMuNTI4YS4yODQuMjg0LDAsMCwxLC4yODQtLjI4NFoiLz48cGF0aCBmaWxsPSIjNTBlNmZmIiB0cmFuc2Zvcm09InRyYW5zbGF0ZSgxMi4xMzIgLTcuMDc5KSByb3RhdGUoNDUuMDgxKSIgZD0iTTEzLjg2Nyw3LjM3NGguODg4YS41NjguNTY4LDAsMCwxLC41NjguNTY4djYuNTUxYS4yODQuMjg0LDAsMCwxLS4yODQuMjg0aC0uODg4YS4yODQuMjg0LDAsMCwxLS4yODQtLjI4NFY3LjM3NGEwLDAsMCwwLDEsMCwwWiIvPjxwYXRoIGZpbGw9IiMxNDkwZGYiIHRyYW5zZm9ybT0idHJhbnNsYXRlKDI5Ljg3OSAxLjQzNSkgcm90YXRlKDEzNS4wODEpIiBkPSJNMTQuNDgzLDMuMjQ0aC44ODhhMCwwLDAsMCwxLDAsMHY3LjAxNWEuMjg0LjI4NCwwLDAsMS0uMjg0LjI4NEgxNC4yYS4yODQuMjg0LDAsMCwxLS4yODQtLjI4NFYzLjgxMmEuNTY4LjU2OCwwLDAsMSwuNTY4LS41NjhaIi8+PC9nPjwvZz48L2c+PC9zdmc+;" parent="340" vertex="1">
                    <mxGeometry x="1.0022222222221444" width="40" height="40" as="geometry"/>
                </mxCell>
                <mxCell id="346" value="" style="shape=image;verticalLabelPosition=bottom;labelBackgroundColor=default;verticalAlign=top;aspect=fixed;imageAspect=0;image=data:image/png,iVBORw0KGgoAAAANSUhEUgAABBoAAAGgCAYAAAAEtQTrAAAAGXRFWHRTb2Z0d2FyZQBBZG9iZSBJbWFnZVJlYWR5ccllPAAAPrZJREFUeNrs3f1V3Nb2MOAjr/s//lUAtwJ8K4BUYFIBkwqMK0BUEFxBhgoCFXioIFBBhgpeU8G82kg42OGb0dHX86ylNTiO0ehIozln65y9i9VqlWAMiqL4UL3EttW8vr/z18tmu4ituu6XWgwAAKCFsZlAA4O+gItit3qZVdtetW284J9eVdtptR0LOgAAAKxxnCbQwCAv3KKYVS9ltW2u4dedxe+qPgsXWhYAAOCN4zWBBgZ1wdYzGMpq22nh159U20H1mfimpQEAAF45bhNoYBAXalFEvoXjattveVfXqV5OUWp1AACAV4zfBBro/UVaFDHoP0gvy8HwVpHDYVZ9PhbOAAAAwAvGcAIN9PbiLIpI8BizGDY7fBvnqQ44LJ0RAACAp73TBPRNURRb1baofvwzdRtkCJEL4u/q/Rw3yzcAAAB4hEADvRED+RjQx8A+tZPs8S0+Vduyen8HzhQAAMAjYztLJ+jFhVgP4MuUNw/Da12mujrFwpkDAAD4aXwn0ECnF2BdrnKeul8i8RpnqQ44LJ1JAACAmqUTdKLJw3Ba/fg1DTPIED6mOn9DKX8DAABAM94zo4GsF1w9II9lEocjO7Qoh1lWn6e5swwAAEx63CfQQLaLrShmqS5XuTHiw4xymKX8DQAAwGTHfgINtH6R1XkYIsCwPaHDPkl1wGHpCgAAACY1BhRooLWLqyi2Ul1JYn+iTXBdbcfVZ6x0NQAAAJMZCwo0sPaL6p88DLFtaJGb/A1RneJUUwAAAKMfEwo0sNYLqs7DUKbhVpJoU+RviIDDhaYAAABGOy4UaGAtF1JRfEh1HoYdrfGkyN8QAYdvmgIAABibd5qAt4hlEtU2r378KwkyPFfkrFhW7XagKQAAgNGNE81o4NUXT1GUSR6Gt4r8DTPlMAEAgNGMFQUaePFFU5ernCd5GNYp8jfMlMMEAACGztIJni3KVVbbovrxaxJkWLdYdvJ31b7HTdUOAACAQRJo4ElNHoZI9Ph3koehbZ9Snb9hpikAAIBBjiEtneDRC6ROWFgmeRi6cJnq6hQLTQEAAAxmHCnQwL0XRp2HIWYxbGuNzp2lOuCw1BQAAEDvx5MCDfxwQRTFVqoDDB+1Rq9cN+fluPrMftMcAABAb8eVAg3cXAh1AsJYJnGoNXotymGW1ed2rikAAIBeji8FGmgSD8bTcnkYhiPKYZbyNwAAAL0bYwo0TPjk13kYyqSSxJCdpDp/g+UUAABAP8aaAg0TPOl1Hoay2va1xijc5G+oPsulpgAAADofcwo0TOhk/5OHITbLJMYn8jfE7IZTTQEAAHQ29hRomMiJLoq9VOdh2NQaoxf5GyLgcKEpAACA3N5pgnEriuJDtS2qH/9MggxTETk3/qrO+3EziwUAACDfONSMhpGe2HqAGTMY5GGYtsjfENUpjjUFAACQZTwq0DDCk1oUkYOhTPIw8I/I3zBTDhMAAGh9TCrQMKKTWZernCdLJHhY5G+IgMNSUwAAAG2Qo2EEolxlk4fhaxJk4HGRv+Hv6nop5W8AAABaGaOa0TDgk1cPFMtq+6Q1eIXI3xDVKeaaAgAAWNtYVaBhoCeuKGapTvYoDwNvdZnqgMNCUwAAAG9l6cTARB6GaruofvwjCTKwHtvV9rW6ruaxDEdzAAAAbxq3mtEwkBNVDwBjBsNHrUGLrpvr7Li6N3zTHAAAwIvHrwINPT9BdR6GKFd5qDXIKMphlvI3AAAALx7HCjT0+OTUeRjKpJIE3YlymJG/4UJTAAAAzxrLCjT08KQUxW6qAww7WoOeOEl1wMFyCgAA4PExrUBDj05GnYehrLZ9rUEP3eRvqO4ZpaYAAAAeHNsKNPTkRBRFDN4iF4NKEvRd5G+I2Q2nmgIAAPjX+FagoeMTUBR7qc7yLw8DQxP5G2bVPWSpKQAAgFvvNEE3iqL4UG2L6sc/kyADwxQ5RP6uruPjpjoKAACAQENuMSCLgVn1419JskfG4VO1Lavr+kBTAAAAlk7kbOx6IFYmeRgYr8jfEMspFpoCAAAmOvYVaMjQyHW5ynmyRILpOEt1wsilpgAAgImNgQUaWmzculzlPFkiwXQdpbok5jdNAQAAExkLCzS00Kh1YrxYJnGoNSBdp3p2w1xTAADABMbEAg1rbtCimKW6XKU8DPCjKIdZyt8AAAAjHxcLNKypIes8DBFg2NYa8KiTVAcclpoCAABGOD4WaHhjA9Z5GCLA8FFrwLNdN58b+RsAAGBs42SBhlc23D95GGKzTAJeJ8phRv6GU00BAAAjGS8LNLyi0eo8DGVSrhLWJfI3RMDhQlMAAMDAx8wCDS9orKL4kOrp3spVQjsif8OB5RQAADDgsbNAwzMaqV4mEQGGfa0BrbvJ31Ddm0pNAQAAAxxDCzQ80UBFEYMdeRggv8jfMFMOEwAABjaOFmh4oGGKYi/VsxjkYYBuRf6GmXKYAAAwDO80wY+iXGW1Laof/0yCDNAHkRPl7+pzedwsYwIAAHpMoKERA5gYyMSAJkn2CH30qdqW1ef0QFMAAECPx9eWTtwEGWLgUiZ5GGAoLlNdnWKhKQAAoGdj7CkHGoqi2K1e5skSCRiqs1QHHJaaAgAA+mGSSyeaPAyn1Y9fkyADDNnHVOdvKOVvAACAnoy5pzSjoRmIxDKJQ6ceRifKYZbVPW2uKQAAoMOx91QCDUVRzFJdrlIeBhi3KIdZyt8AAAAdjb/HHmho8jBEgGHb6YZJOUl1wGGpKQAAIOM4fKyBhsjDkOpKEvtOM0zWdbUdV/e5UlMAAECm8fjYAg138jDEZpkEECJ/Q1SnONUUAADQ8rh8TIGGoij2Ur1MQiUJ4D6RvyECDheaAgAAWhqbjyHQUBTFh1QHGHacUuAZIn9DBBy+aQoAAFivd0N+87FMotrm1Y9/JUEG4Pkid8uyun8caAoAAFjzWH2oMxqqAUKZ5GEA3i7yN8yUwwQAgDWN14cWaGjKVc6TPAzAekX+hplymAAA8DaDWToR5SqrbVH9+DUJMgDrF8uv/q7uM8dN9RoAAOAVeh9oaPIwRKLHv5M8DED7PqU6f8NMUwAAwCvG8X1eOtEkaiuTPAxANy5TXZ1ioSkAAOCZY/k+BhqaPAwxi2HbKQJ64CzVAYelpgAAgCfG9H0KNEQehlQHGD46NUDPXDf3p+PqvvlNcwAAwANj+z4EGprEa7FM4tApAXouymGW1b1zrikAAOCeMX7XgYYm4Vo8JZSHARiSKIdZyt8AAAA/jfO7CjQ0eRjKpJIEMGwnqc7fYDkFAACkDgINTR6Gstr2NT8wEjf5G6r7aakpAACYuqyBhqIoohMeuRgskwDGKPI3xOyGU00BAMBUZQk0FEWxl+o8DJuaHJiAyN8QAYcLTQEAwNS8a/OXF0XxodoW1Y9/JkEGYDoi98xf1f3vuKmqAwAAk9HKjIamYx0zGORhAKYu8jdEdYpjTQEAwBSsPdBQFEXkYCiTPAwAd0X+hplymAAAjN3aAg1Nucp5skQC4DGRvyECDktNAQDAGL05R0OUq2zyMHxNggwAT4n8DX9HFR75GwAAGKNXz2hoOshltX3SjACvEvkbojrFXFMAADAWrwo0FEUxS3WyR3kYAN7uMtUBh4WmAABg6F4UaGjyMESAYVvTAazdSaoDDt80BQAAQ/XsQEPUg0+WSQC0LZZTRLLIU00BAMAQPRloaHIxLJJZDAA5fanuzweaAQCAoXk00CDIANCpk+oePdMMAAAMyYPlLQUZADq3X92L55oBAIAheffI38X6YEEGgG5FsMESCgAABuPeQEPVqS2rlx3NA9ALv1f35Q+aAQCAIfhXjoamM/uXpgHolcvqfi3YAABA7903o+FYswD0zrYlFAAADMEPMxqqTuxu9fJVswD00nV1z36vGQAA6LOfZzR4WgbQXxtFUcw0AwAAffZ9RkNTzvL/aRKAXpOrAQCAXrs7o2FPcwD0XuRq2NIMAAD0lUADwPDsagIAAPrqnY4rwOC4XwMA0Fs3gYYmP8OG5gAYhC1NAABAX93OaJBYDGA43LMBAOitd5oAYHDMQAMAoLcEGgAAAIC1EWgAAAAA1uY/mmBY3r9/nz58+JB2d3dv/nz7+rPFYnHzenFxkZbL5c0r07a1tXVzvcRrXENxLf18zXz79u3mWrm9fgAAAF6qWK1WUXUiRqtfNUc/xaBwNpvdDBK3t7df/XsuLy9vBpCxnZ6eatgJiKDCwcFB2tvbS5ubm8/+d9fX1zfXyHw+F3ToqereXWgFAAD6SKChp+JpcwQXYpD4kgHiS5ydnX0fTDIuEWAoyzLt7++/+XddXV3d/C7XSb8INAAA0FcCDT0UwYUY2G1s5EksH0+vYxB5fHx8s8yC4YoAVVw7nz59WvvvPj8/v7k2LcPpB4EGAAD6SqChR2KJRAz437I84q1OTk5uBqoCDsO8fmKGSlszYEIEpSLYYHZD9wQaAADoK1UneiKWScRa+C6DDCGm2v/99983wYafkwXSX5GDIa6fNoMMIWbZ/PHHHwINAADAg8xo6IFYstDGVPe3irX5twEQ+ivOUQz+c4vZL7FvumFGAwAAfWVGQ8fiyXAfgwwhno5//fr1JhBCP8VyiS6CDCFmv7g2AACAn5nR0KGunkS/RpTGjPKa3759c+J6Ipa2RC6NXElDH/Lrr78ql9oBMxoAAOgrMxo60uWT6NeI3BFRbSDeN/0Qg/uugwwhZuVEOU0AAIAg0NDhIHFoYilF5GsQbOhezIbZ2dnpxXuJYIclFAAAwC2Bhg5ERYe2qwO0OagUbOjHNdQnHz9+vFlaAwAAINCQWayrPzg4GPQxRLAhpssrf9mNmM3Qx0DV0K9rAABgPQQaOhgk9mFd/VtFzgYJAA3o74pZDXI1AAAAAg2ZRaBhLCJHQMxsIJ8YyEeQp6/29vacJAAAmDiBBoPEN9nf3x9V8KTv+j6Qdy0AAAACDRmNNVlelOmUCNA1FMYWSAMAAF5OoCGjMa9fj3wNKlG0bwgBHUEnAACYNoEGA7C1UIkiXzv3nWsAAACm7T+agHWJafOLxcLMhpYMpV3jfapIAjAcRVFsVS+xxRfN++bnreav4/WlNZUvq+1b8/NF8/PydlutVkutDjBuAg2sVQQbYmaDpIDrZ6YAAG9VFEUEE3ZTHVTYqradNroDd37euec9xMt5qoMQN9tqtbpwdgDGQ6CBtYtKFBcXF+n4+FhjADxv4NdWJHG0T49bbrcY+H4bWWBhr6Wgwmvt3H0/1fu8rl4Wt9tYAg93Zou0aS3Xa8vv9dtYg0ktt9uL7uHVe4l7Yu4psKO5X3b8vfMvVbsuBBrgJ7///ntaLpem0AM87bjFAeBlB53OMbTbL82Ad8id4VkTXNgcyNuOJEQfmy2O4ap6iU7EfOAD1DgPhy3vY13Xa5vv9Tquy5EGPttst6NqK1/4b06bz1MuMTtpdwJBhq3q5a+Mu/wy5O+hIBkkrYklFPI1AHRqu+ocHWiG8YtOcLWV1bZsOsOfBhRkuM9mcwx/xTHFddx09BmmGPia6tqyZmZB7nv+TvXZ3JvC0CbjvmKGVzn0BhNooL1vlI2NmxkNcgsAdKpsptMyQtW53a22eIL5d6qfqm6O8DDjmH6PY6yOdR7H7MwP0kfnrn2r1SoGxOe5B+Fj/p5pAvY5l54djGE5ikAD7fYMNjdvKlEA0Jl4klhqhtF1fCPAEF+wX1Oz3GAi9uOY49gNWgfJrIY8Zr5n1navfZ/52M6bYNHgCTTQuttKFAB05pNp56Pp9H64E2DYmXBTxLHfBhxc2wPqFlbna6YZ2tXkwjjq4HtmjGumYxCTM+fFaD4fAg1kEZUoDg4sEwbouLPEQMVTtWqLp8F/pWkHGH4WbRFLKo4tERoM5ypTO1fble+ZN913d1PeGWNHY0qYKtBANlGJYm9vT0MAdDQgM9V80J3dqLzwSWs8KNrmwjU+CPF02NOnlnWUGHI0CYibYNg84y4jKDSqpUUCDWSlEgVAt7dhTTC4zm50PGOZxKbWeFK00demzei3Q0te2rdarSJR7Fnm3Y4lAfFB5vvubAwJIO8SaCArlSgAuh2IKXc5DE25SrMYXifWil8YyPaegFC+AfN1zu7+0M9tk2viMOMuz1ar1WJsF55AA/l7uSpRAHRJucthdHIjyLCtNV4t2u5ipMnpxkK5ywyaNf+5B/77Az+384z7iiDQKB8ACDTQzbe/ShQAXRn806YxqzrnkcxokfJmOR/ztb5o2hQDuslarVZlkhjyuffgGPTnDPKWY0oAeZdAA51RiQKgu1uwJ7297ODOqpc/kyDDOkVb/qmkYm9ZzpXPrINzWw7sHrwVA/+Mu7xcrVajDfwLNNAplSgAOmNWQ786uPFl+IeWaM0fZjb0luVcGTQ5AE4y7/ZgYLlS4nsxZ6B31EE2gQY6pxIFQCd2DLz6oZldMtcS7Xc5zOTppRjYlZoh28A2d2LIQdzbmu/Djxl3+WWMCSDvEmig+28XlSgAumJWQ/ed2/jyWyTLJXINehaqUfTSJ+elfU35xDLzbnsf1G7uw/OMu7xOEwiuCTTQC7eVKAQbAPLefoe2hnaEFkmQIado61PN0EtzTdC+JifAeebdHvd8eUyZ+T580AR9Rk2ggd6IShTHxx6uAWR24EliN6p2jy89JSw76HI0bU+/WM6V8b6feX+bqadP8JsynJ8y7vJ8tVrNp3CRCTTQK1GJoixLDQGQj/XR0+jc8qNPzTmgXwSAMqgGuhfVy5cOPnMfXHPZq390RqCB3jk8PEyz2UxDAOSzb9CV3VwTOAf8i+Vc+UQ7X2feZ68CSc21lnNW2dFqtVpO5QITaKCXYgmFShQA2Tud5Ovcbg7wrV+mem33Q5tBLetwoNxl+5ocAbPMu43lMb0o6dgsGTzMuMurNLEZO//xMaOPohJFJIfc2tpK37590yAAeTqAs6msHe2wcxsDqD7XTo9gwqLaltUW06uXL30C13TgY/tw53Wnx4Pa4ykkZhtSN7AZkM00RevBhtPq+j/P/Pksq33Oe/CZy/1dN5vafcaMBnofbFCJAiBrB9BNt+WBbepXlYl4yhZrtX+tOsFFtX2otsiIHoPvxWum+ca/af7tcfO7duN3V3/1S7Ovqx4OaumX/Z6u5x+j2dQ+cxFUT3mDK2dxT5zahSXQQK+pRAGQ1Wbq99P2QevZbIaTGPhXnd+tJhjQesnHJvgQ+9qq/vi/5j1c96At9gXYekkHMIMmmHjUwWdut8P7cM5rK+5xsyleWwIN9J5KFABZHSp32ZquZzNcNwOK/6sGF7Mun7BF1vt4D6leWnGUug84CLD1z07z5Jn2xcA790yjeYfHmvM+XE51aZZAA8Po9apEAZC7I8b6dflFdlZtsSyiV53eeC/xnlIdcDiZ6LnhkUGa2SZ5PocdfAayJ2NtZlHsZ9zlZSwhm+p1JdDAcHq9KlEA5PJRucu1d3D3UjeVJmKmQORf2OtzWbUm4BADnV9TN7MbNptzRL9YzpXvM7hIdUAyp4NcM+iagNU88/HNpnxNCTQwGJJDAmRlVsN6dTGIjQoSH3LkX1jjYCfe64fmvec2c5n20oHlXPnaOuUN9OVMDBnHljPY+yWWiE35YhJoYFAEGwCy2bY+eq1yBxpioL7b51kMD2ne827KH2z46DLtZ/ev2krNkO2zlzvI/LHt2URNBZPDjMd07ZoVaGCIPV+VKAByObY+ei2d3L2UN/nYbZBhsAnImve+mzIHGyyf6K19y7myffbKlD/I1/Z3Te6Bw2yqCSDvEmhgmN82KlEA5OBJ4nrkHCDFk7TdMXRy7wQbrkd6ruj3YHHKcufFaC0XR1EU8Xt3Mh7L+ZCWq7VJoIHBUokCIItP1kcPavC6N6Ynac2x7I30XPEylnPl+9wtUv4qMIfNEoe1ab67yszH4RptCDQwaCpRAGQx1wRvGyBl2s9JM0Aw6On/ueKVXT/LubLJnRjy5vy28PtyLls7GmJenLYINDBokkMCZLFjffTrZGy3sScfyzboca33u+uXlLvMoplNlLutd9Y1a6XJt5IzwetVk9+ChkADw//GEWwAyGGuCV4l17S7+ZifpDWDnuORnTNe59Byrmyfu7jvn2fe7ZtnrTT/PnsCSFfMjwQaGIWoRDGf6wMDtGizSarFy+SKgk8hUd58ZOcM1/sQ5L7vb6zh/JapTjCZy9kYl629lUADo/Hx40dlLwHaVVof/WK7GfZxOYV1wc0xno/knPHGbp8lLtk+dxfVy5fMu311OdMmoeSnjO81lnTNXCn/JtDAqHz69EklCoD2rONJE+s3n9CxKhvHFK/7rpXVdpV5n8cDuS7KMVX6WSeBBkbnjz/+UIkCoD376y5BNnJbGfaxmFB75jhW1/cwWM6VSUeJIaOcafmSf9D8/zkrx8RsMsH3Bwg08O9PzOXl8Hshi0Xa2tpyMgHaoWP1gsFQhkHAxYQGPDmOdcNlOxiWc+X77MVsotyJIQ+em/iz+f9yB0NmroyHCTTwL7u7u+n6+nrQxxCVKE5PT1WiAGjHTlM6jO6dO2YmLIJCpWYY7cD6Jcv15ilvkPDLlIK8ryHQwL98+/ZtFMEGlSgAWmVWA9AHn5S7zKNJyHqUebdPJv5sAt87Gd9TDJJKV8TjBBq418XFRTo4GP6yN5UoAFqz+dL1s7TzlT3BY1447fxkrgnyWK1Wcd/PnRhy/tASmea/5z7/MwkgnybQwMOf6Pk8HR0dDf44VKIAaM2BJ4md09kFy7lyy92xjlw3Dz0BjSeKOZdMnDf5KniCQAOPKssynZycDP44VKIAaIX10UBfmMKaSTXQXlQvZ5l3e/hzYLtZUrGf8T3EkomZK+B5BBp4UiyhUIkCgAfsP7V+FiADy7nymjUD75zmT/y5bcdNngqeQaCBJ40lOaRKFMAE5bpx69wDfbgXHSh3mUeToyD3vT+WyMzihyaotJlx31dNfgqeSaCBZ1GJAmCQcnWKvnf+AO4Rna8cCQRfUg6RN6oG3tHWuac9Hzez6A4z79d33AsJNPBsKlEADO/WXW1fMu2r9CQReEA8/c7ViYzlXBJz5ZN7cBDBpNzJGE+avBS8gEADL6ISBcDglCnPtOXNDjqcwEA0mfrPM+3OE6V85zUG4F8y7zZnlYlr322v8x9NwIt7rGV5k1Rxf39/0McRlShilkZsACPuBH5r1rL+nmF3kRV8LlkWLVtmHLCyXjFg+yvDfm6Wc1X3orkmzzM8SPXSgo0xHluTj4IXEmjgVWI2QJSLjJwHQxaVKOI4lkt9YmC8Yh1t1emODn6OxFnxJFE9e9q8nmPwaAA5zHN3Ud2Lom56jqdVsZzr1CAxy3n91nzH/DGyQztv8lDwCpZO8GqRHPLq6mrQx6ASBTAhs0z7+ajcJfCIGJBazjUyTQDwfITXKq8k0MCrRSWKvb29UVSiiGADwMg7gYvq5SzT7jwBAh66F+UsixjlLre0uoH5K3yJGThO6esJNPAmkd9gDEkVd3Z2lL0EdALXZ1u5S+AhzXT0XOUuSy2e7bzGwPxoBIdy5bp5O4EG3ixmA3z+/HnwxxHJLVWiAEbeCVxm7AQeK3cJPCJXp2vfcq6scgWR2nQgt8fbCTSwnjvK8XE6OTkZ/HFEJYrIPQGgE/hmniQCD7Kca7TnNQboQ15Ccd6UYuWNBBpYm5gNcHl5OfjjiBkaUYkCYMSdwFwBgE/WRwOPsJxrnN8zMVAfYmLISDznOlkTgQbWaiyVKCJfg0oUwIg7gfOMncC5FgceuBctk+VcYzVLeaqLrPUaaa5J1kCggbVSiQJgMMpM+9mxPhp4bHCXaUAay7mUK8ykGbAPacnKVfWeS2dufQQaWDuVKAAG0QlcVC+5kuu4mQIP3Ytyruk/tJwr67mNgftQpjrPnLH1EmigFSpRAAxCdO5zPEncrDr3niQCDw1I5ynfci6JIQ3gf3bSBN9ZI4EG2ruLq0QB0PfO/beMne7S+mjgsXtEpv18tJwr6/dMDOD7PCCIYLtAeAsEGmiVShQAve8ERuc+V7lLTxKBPgxI51o8q1yz516jbILurJlAA61TiQJgEJ3AHPaLohC1BR4c9CXLuUYnc1nllziv3psAeEsEGmidShQAve8E5qx5rlMHPHQvWibLucZ6buO89m2as2BTiwQayEIlCoDey3WTjnKXe5p72KpzuBrz5gx3OiAtU77lXKUWH+X3zHMcVdfahVMi0MAIqEQB0OvO/bJ6+ZJpd2Y1AI/J9aT5k3KXWb9nLjJ+zzzmyvdQ+wQayEolCoBeK1O+9dGl5gYeGJDmXM411+Kj/J55zIEEkO0TaCC7mA1wfn4++ONQiQIYYec+Ol65niQeWB8NPNZlzLSfHeUuR/s9c5+zJpBFywQa6EQkhxx62UuVKICRdgLnKU/CLuUugcfuRcuUb5r9XIvnHQp0tN+YSSEBZCYCDXQiKlHEzIYxVKJYLBZOKDA2Octd7mpu4AFlspxrVJp7/seOdn/aBLDIQKCBzkQlipjZMHQRbFCJAhiTqiO2qF7OMg4kAO67F33LeI+wnCuPLjvNe5J/5iPQQKdiNsBvv/02+OOIShQHB2ZiAaMSN7UcTxJjffRMcwP3Wa1WscTKcq4RaGaNbHb4FpzjjAQa6FzMBhhDJYrff/99FDM0AJrO/TJjh6z0JBF4RM7lXDJ9t6CZSdCHp3Ifq/eiw56BQAO9MJZKFBE0UYkCGJEINFxl2M9mkqALeEDm5VyeeLfXrht9eS+C2+0TaKA3xlKJIspeqkQBjKRzn7vc5ZZWBx66R6R8y7k88V6jjhNA3kdwOwOBBnpjLJUoNjc3VaIARqOpN55jypm1s8Bj96JlxnuEJ97rNe/hezq0TKZdAg30ikoUAL2U68nPR+UugccCAMlyrkHpQQLIp64nWiLQQO+oRAHQL6vV6qJ6yZW1V8cPeOhelLvc5ZZWf70eJYB8iKpHLRJooJdUogDonVzro7d1/ICHrFarecq3nKvU4m/SpwSQD75Hy2TaIdBAb6lEAdCrzn3OJ4k6fsBjcpa73NXcL9fDBJAPEVBqiUADvaYSBUB/rFarXOujN5L10cDD96Kcy7kMQl9nPqD3+klAaf0EGug1lSgAemeWaT+H1kcDj8hZ7nKmuZ+v5wkgHyI/0JoJNNB7KlEA9MdqtVpUL2eZduemCTx0L7Kcq4cGkADywa569d7NpFsjgQYGQSUKgF7JdSPbMZ0VeIjlXL00hASQDynNpFsfgQYGQyUKgN507pfVy1Gu278WBx4xy7Qfy7meMKAEkA+JAIklFGsi0MCwvklms3R2djb441CJAhiB6IzlWB+9aTor8JBmOVeuMmUGoU90cUdwDB/NpFuP/2gChiaCDbGUInIeDNVtJYoINkTCS4ABdu6/NQGAPzLsLqazzps12fRDl/Wnt9LwEs3Rcvew2v7ONQhtghvc0XwfjOVzOW/uM7yBQAODEwPzWHoQSSJjwD5Ut5Uodnd3BRuAQao62/MmG/tOy7u6rXNuZkN/zv1uhwOauBYOnQXuXI/L6ro4ynRdxKwG01J//Ey+T+MqAxoz6crquiqd3dezdIJBWi6XNwP0oYtZGcfHZuEBg5arIxZ1znXugccCADmWc6lOcH/bb4zsmOTkeCOBBgYrZjSMpRJFWZZOKDBIzRTiXJl6RWaBh+5FMT00VwCgVO6y1uQz2B/p4c2d4dcTaGDYn/75PH358mXwx3F4eHiTewJgoKJzn+NJYpS7VLYHuFcs50p58ofcLudi3AFg3zlvINDA8Hu3BwejqEQRSyhUogAG2rn/lrGzaVYD8JhcAYBPU59a3ywhyZmdPQLauWvdH5u98joCDYxCzAa4vLwc9DFEYstIDvn+vXsZMDxN0qyrDLvabJIBAtx3L1pkHIzOp9rOHSWAjP3lmkH3/Tsnmb3yKgINjMJtJYrr6+tBH4dgAzBwBxn340YJPDYgzbKcq9p2J9rGuRNAnq9Wq+PMuThuSUb8CgINjIZKFADdqjqApynf+uhtLQ48cC9apnzLrHam1r4dJYA8uHN+55m+a+7SOX8hgQZGRSUKgM7NNAHQtYzLuaYo96D7S3U+L376b7lnNewoa/oyAg2MjkoUAJ127pfRKdQSQA8YGK5ZBwkgI1hU3vNdE4GHo8yHr6zpCwg0MM5vFZUoALoUncJrzZDF1gSPWUefZ8m4nGsSOkoAedDkZbi3q5zyzlrZSJZQPJtAA6OlEgVAZ537b0mW7ly2JnjMIvC8aKCqCdYmdwLIsyZY9Nh3Te7zu9/kqOAJAg2MlkoUAN2J7ODVy6WWaN17xwyP3otiir3lXG/UQQLI6+cEETqatWJWwzMINDBqY6pEITkkMECeJGb4inDM8KQyWc41tMF12eT8eY5Z7ntQURQ65k8QaGD0xlKJIoINAENSdRIX1cvZxJuh9VkdU5rGm+lYVSoY373Icq63fe5yJ4C8bGbFPff8LlP+xJAHVbtsuToeJtDAJIylEgXAAEUHdcpPEr9l2MfehNpzN8M+lj6242M51+t0lABy9orzG+9RYsgeEWhgOj3dg4N0cnKiIQDydu6XE++MCTQ4VnrUHdQEL5Y7AeSXJq/Ga8wyt83Hoijckx4g0MC0vl0ODgZfiQJgoB3VqU5Hv8iwj82qszv6SgzNMeaYvr3wkR0ny7le9ZnLnQCyHNj5PW5mffATgQYmJSpRRHLIoVeiABhY537K66OXmfYzhSe1ByM7Z4z7OhqD3LPRZs33xVvPb86O/qZr6n4CDUyOYANAflXncZ7ylyDrg4tM+9kfc2Ky5thyPVld+sSO+l4U5/dISzz5mZtVLzsZd3nelKpcx/nNHSA5lBjy3wQamKSoRBHLKADIanI33jesNX6N+Yibcp7xnC18VEdvysu5ntQsBcg5WI+nf7M1fobLlD/x59yV8yOBBiYrKlEcHQloA2QedE8xK2+umRw7TRm6sQ164ph2Rnau6PZepNzl46JtciaAPG5mIqxT7nvhTjMLhIZAA9O+i5alShQAeU2x3OUi475+H1NiyOZYypGeKzo04eVcz/nMfcq4y8tmBsK6z298lnN38iWGvEOgAT1elSgAcnbup/gk8TTz/hZjCDY0xxCDhZxPVhc+pdPqBmqCfw+WR3QOcge2N5KZMt8JNDB5kkMC5LVarSa1PrpZMpLzeKOzO+hgQ0dBhmv5GSZ3L5rqcq6HPnezlDcB5Embn7mOAtufhh7ojcSW1bZXbeVP2+5Lkl4KNIBgA0AXZhM73tyzGm6DDbsD7OTudhBk6OIc0Q9TXM513+euiwSQrc8oaQLbEkM+4/w3wYRl9ce/q+3Pajv8afsaf1f9PxeRO+epZSICDdBQiQIgn+Yp1pTWR3fR8YyB+tfoPA6os1s2ndmNiZwjur8XfUv5lwv0UZn5c3fQtH0Os8xtuT2kxLzNe102wYTN5j9fNt/RR80WP9/OzNuutt/j38TMB4EGeE4PQyUKgJxmUznQZop2VwmBDpsnULs97ujuNk/SDjt6C1eWTUw62FCmCZe77CAB5HmTjDPn/fdL5mYt+54YspnFsGiCBhvNZ+Bztf23arMP1bYbn41mi5+34u+awMN182/+rH7HXKABnnNXUIkCIFfnb9l0WKaiy6em8QQqZjf0ajlFE2CIjm7MYtjs8uvfJ3LyZhM+9uMJtHWZ8ieGnPc5yJDqJWq3OTkiEBPBhUdLjcbfNYG5CDqcNf95vwlmvxdogCeoRAGQtYM7ifXRzRO8rp+a7jQBh+gUzrp44tY8RYv1vRdNgGGn4zaJ609+homb4HKu28/jLPNn8OixgWyL5zeWaeRezvCxxzPJ4nrfbn7+rWqfFy1lif+32mLZxO3Dgu30U8DqP24r8G+3ySGXy2Xa2NjQIAAtdv6a9aF/TOSQy54c63bzPv6o2v+8GWgvminGbQxmorMd07P3ehBY+NlxxrXi9FsMuv+eUJAhdwLIq+ZpeFffN/MOAivzVD/979N5P/4pyDBv/vvskfe6bLaLu/fLOJ/Vv4s/x/KLm5kNTQJOgQZ4KtiwWCwEGwDG1/nr8lijo73Zo7e1c9v21XuLlwg8RMAhOo+L207mU08hm7Jnsb1vggq3f+7zeb1KEgHyz+czktvFE9rDiRxy3ItydnJnPTjmCGz/lXF/m3HP7zLA8tN9+m4+jqOfcmU863u4+h1fYgbEnc/NcfN791Odm+I0PkuWTsAjVKIAyNrhnYq+f7HsNB3R23JmtyXNVo9tqX4SHP/vbVm0/dT/4FFpNgM/mcRyrg4SQJ70IeFqM2srd26ggyYQ26fvn8sngh8n6f6KE+FTMyvi5997myDy5vcKNMATVKIAyNL5WzQdmykcayxTOHPWO5c18z2D+Xx2sZa/Czln8lz3rE2PU958Ob1IDNksldlv/lg+NQS6p+LEL3eDDfd8bm6vqT2BBngmlSgA8txu00QSQ6Z/nv7QjWj7mWbgPk0AarRZwTtYqtarmUMdBZN2qnbf6/jQb/d/1QS8X9pui3QnYeo9iS5vAw0bcawCDfBMs9lMJQqAdjt/yzSR9fLNsRrodqfsIvM9gzLKWQ3NU+0y4y7Pb5MD9uwefJryVxk57qLSzx23gYFFS20aAZzbwdIHgQZ4yadzdzddXV1pCID2On/RAb6ayLFGR9d0ufzO+jjwoXefz8VIP58RQNnMvL++mqW8M8ui3csOj3ereX1VdaEmSPKh+eP1Azk3bv+bQAO8RFSi2NvbS9fXZrsCTLRjuu7BTHR0TZfL5zKZScLzlWlES5yahIQ5K2octVUyd03332XKP4vuU5OIs0vPOScfYmnEne2g+XcbT3xP3y6ReS/QAC/9ZF5c3CyjAKC1zl8XU1q7tJsEG3KIAeOeKhP0fCDapnnGfQ2idGxHs+iGcE39nv6pOvS1+XPMyIhExv97TiJdgQZ4hdPT0/T582cNAdCeKc1qiIHvbpIcsk3RtrvyMvDKQeHgl3M1iQhzJoCcDSioN8u8v50mIWdX3pIn4uNzv58FGuC13zrHxypRALQ3+I4pml8mdLy3wQaJgNbvNshwoSl45Wdz0IHPZm19zqfoZw+s3+/rOY73mrvkcJeJIZ+zdOOXql2K26368//SPzPv9h+poHH7uy8EGuANVKIAaFWZJvSUvxkIf0iWUQgy0LfP5tCXc+VMADnU0rG5Sw5HroPcSygWzevuK7+f7gYXHjrHt4GGpUADvJFKFACtde7jSWI5wWPeTdPKUdGWCNhsCTKwxoHo4HSQALIcYh6UZllV7u+bmBmwm3F/i+Z1p7kuXtNGt99NH++51uJYbgNapwIN8EYqUQC02vk7ThN7wh+d9GqLDtsXV8CrxdrGXYkfWePncqjLueYZ93U55NKxHX3fHGc8vgg03D4dnbWwi/LOdWBGA6yDShQArTqY4kFXHbU47l+TJJEvEW31W5QNFWSgpYHUYD6PXSSA9H3zYtvVeSoz7m9+e5yvmdXwyLW2e+dauwmeCDTAmqhEAdDagHuR8ifq6suxx9rwrake/wvFlN4Pzym7Bq/8PA5mOVcHCSC/jGGZUvN9kzvb+1oH/U+4raISOSJOf0pIedHcR2N7KFB7m6/k/PY9N7/j9PY+fHsPFmiAdX5yVaIAaK0jNuXBTbXFk8lfkqoU97mdxaB8JTk+j0Mpd5kzAWS0Rzmy75tRJoZsgmWz5o/bd/cbs+ia++iDCXTj+r/z/yybIMOiOYYfEoEKNMCaqUQB0ErnKAaQRxNvg0W1bTXtYDlF3QbRFltmMZC7u9fnN9dBAsiDMS1V6mjmysdciSGbWRu/NX+MhJSL15TarP7NhybIsH37ubgb7BVogBaoRAHQiqE8SWy7kxgd4K003YBDHHMk5YtlEqVcDHTwGYzBVZ+XM80z7uusWeI1tnMc3ze5q//MXzPgf+Xxze8EGyK3QsxOmD0zwPC+yStxN8jw28/XgUADtEAlCoBWOkaTK3f5WFvcCThEZ3EKAZg4xtsZDAeWSdCxXi7nypwA8jqNe1lb7mPbzLnPJthwm3A4lj78UV0/EXA4jtkVd/NGxOyFuLaqLf5N3HsPm38T9+X/3TerTKABWqISBUBrHaNzLfFDwGHeLKmIHA4naXyzHOLJ8a9xjGYw0KPPXgy2erWcq4MEkOWYA34dlTQ9zJgY8m7C4dskcxHs+FRtX6vt7+q9rGKrfv6r2v6stv30Tz6GuP4/PJTPQaABWqQSBUArDjTBvR3GRVPWMQYbvw446HDdBBdipsb/RSLMMU7NZhT6tpwrZwLIy2Z5wdiVHdxH55m/OyJgPat+/G+1xcDl/IFjvrpzb34y8FtUf3lb9/Kre0W7FotF2tnZ6f37rK4HJ2vdd4v5PO3v70/iWI+OjlJZlk56+18KPqjAc7/XI2FXTKeO/l78vNHDtxkd20Vszfp3AAbsP5qAu+QUaEcsodja2hpEoAmAcWmmtX6f2toEHn7ecgUfrpv3EtsyXgUWAMZHoIEfRF4B2hHJIWNWy/b2tsYAoDM/Bx5uNQGIWHZx+xp2X7mbxc8/CygATIdAQ0bL5dIT7QmLShQxsyGCDRsbG6O+zgEYnjsJvQQEAHgTySANwH5gRkP77RszG1znAADAWAk0ZBRPsocwEKb96+C3335znQMAAKMk0GAQb5DYgahCcXJyMrrjOj9X2h4AAKZOoCGjWKN/dnbW2/d3eXlp2ntGka9hbAPz01NlzgEAYOoEGgzEvoun7OQV+RoiwDMWriEAAECgoYOB2NXVVe/e1/X1tUFiB24rUUT7D10sBYnjAQAApk2goQPHx8e9fE8Gid2I3B27u7uDDjbEey/L0skEAAAEGroa1PdpVkMMEvsY/JiSoQcb4vqR3wMAAAgCDR2J6fJ9ei9mM3RvqMGGyDFhNgMAAHBLoKEjUUby6Oio8/cR6+pVCuiP22DDUBJERlAk3i8AAMAtgYYOxVPgGOh3JQazfZpZQe022NDltfEct0EGs2EAAIC7BBo6FgP98/Pz7PuNIIMn0f11W43i119/7eVSisgxEtdPBEUAAADuEmjogdxPryOw4Un0MMSylq2trV4ss7l7/Xz48EGQAQAAuJdAQ0/E0+vPnz+3vp8YsAoyDEucq1hm89///rfT5RQxs8L1AwAAPKVYrVapKIrd6uevmqN78aQ4SgXu7Oys9ffGUomDg4ObJJQMW8xwiMBUbJubm1n2GQGOCHYoYdkf1b270AoAAPSRQENPxSAyAgPb29tv+j2xlj4GiPP5XKOO0N7e3vdtY2Njrb87ZjDE0g0Bhn4SaAAAoK8EGnouZjhE0CEGks99eh3BhZi5EMEFMximda3EdRKvsbzhNYGH22snAgzKnvabQAMAAH0l0DAgMWU+toeqRURyvtg8fSa8f//+Juhw+/qQuF5ii2tH7oXhEGgAAKCvBBoABkigAQCAvlJ1AgAAAFgbgQYAAABgbQQaAIbnWhMAANBXN4GG1Wq10BQAg3GhCQAA6Ku7MxquNAfAIAg0AADQW3cDDQvNATAIAg0AAPSWQAPA8JxqAgAA+uqdjivAoJytVqtvmgEAgL76HmhoOq4nmgSg1wSFAQDotWK1Wv3zh6LYql7+1iwAvXRV3bO3NAMAAH12d+lEzGpYJrMaAPqq1AQAAPTdDzMabv5DPashMppvaB6A3jiv7te7mgEAgL579/N/aGY1HGgagN64rraZZgAAYAje3fcfV6vVPFlCAdAXB00QGAAAeu9fSyd++MuiiCUU25oJoDOfq/v0sWYAAGAo3j3x97vVdqmZADpxJMgAAMDQPBpoqDq436rtQ7KMAiC336r7b6kZAAAYmnfP+Z+qzu6sevmc6oRkALTnqtr+1+TKAQCAwXn33P+xmb4bsxvONBvA2kUg9yjus9X99kJzAAAwVI8mg3zwHxXFbvUSgQeJIgHeLgK4KksAADAK717zj6rO8KLJ3WA5BcDrRbLdX6r76Z4gAwAAY/GqGQ0//IKieF+9lNX2SXMCPEsEaA/kYQAAYIzeHGj4/ouKYqt6iU7zjmYFeFDkYTiOqj6aAgCAMVpboOH7L6zzN8yrbVPzAnx3Xm0zSyQAABi7d+v+hU3+hq1UP7WTvwGYuihXGXkYdgUZAACYgrXPaPjhl9f5G6I6xb6mBiYmAq1lUxoYAAAmo9VAw/edFEVUqIjOtvwNwBR8SXWQQR4GAAAmJ0ug4fvOimIv1QEH+RuAMYo8DFFN4kJTAAAwVVkDDTc7rJdTHDTbhlMAjEDkYYgAw6mmAABg6rIHGr7vuC6HWSb5G4DhijwMUaqy1BQAANCM97sKNHx/A3U5zFhOse10AANykupZDPIwAADAHe+6fgNNOcxIFvlbUg4T6L/IwxDlKmeCDAAA8G+dz2j44c38k7/h0KkBeibyMEQlibmmAACAR8b2fQo0fH9Tdf6GWE7x0SkCeuAo1bkYzGAAAICnxvR9DDR8f3N1/oZ5Ug4T6MZZqvMwLDUFAAA8z7s+v7kmf8NW9ePnJH8DkM9lqvMw7AkyAADAy/R6RsMPb7TO31BW2yenDWhJBDQP5GEAAIA3jN+HEmj4/obr/A0xCNhx+oA1+pLqZI/yMAAAwFvG7UMLNHx/40Wxl+qEkfI3AG8R5SpnlkgAAMCaxutDDTR8P4CiKFNdEnPD6QReIMpVRoBhoSkAAGCN4/ShBxpuDqLO3xCzG/adUuAJkYchlkgcawoAAGhhjD6GQMP3gymKD6kOOMjfANznJNXJHuVhAACAlrwb08FUg4eLatutfvwt1dOiAULkYfhfdX+YCTIAAEC7RjWj4YcDq5dTHCT5G2DKIuAYMxhONQUAAGQaj4810PD9AOtymLGc4qPTDZMReRiOq/tbqSkAACDzOHzsgYbvB1oUu6kOOGw77TBqkYehVK4SAAA6Gn9PJdDw/YCLYpbqgIPlFDAukYehVK4SAAA6HndPLdBwc9D/5G84dAnA4MUyicjDMNcUAADQgzH3FAMN3w++zt8QgxPlMGGYjlKdi0ElCQAA6MtYe8qBhu+NUOdvmFfbpksCBuEs1bMYlpoCAAD65Z0mSCnWdFfbVvXj51RPwwb66bLafqk+r3uCDAAA0E8CDXdUA5dIErlVbV+0BvRKBAA/V5/RD5I9AgBAv1k68VDDFMWHVFenkL8BuhWBv1IeBgAAGMh4WqDhiQYqir1UBxzkb4C8olzlzBIJAAAY2DhaoOGZDVUUZapLYm5oDWjVVaoDDAtNAQAAAxw/CzS8oLGK4n2qZzfsaw1Yu8jDEKUqS00BAAADHjsLNLyi0epymDEYkr8B1uMk1eUq5WEAAIChj5kFGt7QeEUxS3XAQf4GeJ3IwxABhgtNAQAAIxkrCzS8sQHr5RSRu+FQa8CzRR6GqCQx1xQAADCycbJAw5oasii2Up2/4aPWgAddN5+TY8skAABgpONjgYY1N2idvyEGUttaA34QeRhK5SoBAGDk42KBhpYats7fEAEH5TCZustU52FYaAoAABi/d5qgHc3a861q+6I1mKhYJvFb9Vn4IMgAAADTYUZDjkau8zfMk3KYTMdRkocBAACmOQYWaMjY2HX+hnlSDpPxOkv1MomlpgAAgGmydCKjmD5ebVvVj59TPa0cxiLKVf5SXd97ggwAADBtAg0dqAZikSRyK9VZ+GHIImD2OQJo8jAAAADB0omuT0BRfEh1dQr5GxiaSHRaysMAAAD8MM4VaOjJiSiKvVQHHORvoO/Oq21miQQAAHAfSyd6ohq0nVYvMbshsvXL30AfRR6GX6trdVeQAQAAeIgZDX08KXU5zLLa9rUGPRCBryhVWWoKAADgyTGtQEOPT05dDjMGd/I30JVIWHogDwMAAPDssaxAwwBOUlHMUp2/YUNrkEnkYShVkgAAAF48hhVoGMiJKor31ctBtR1qDVoUeRgiwDDXFAAAwKvGrwINAzthdf6GmN3wUWuwRtfNdXVsmQQAAPCmcatAw0BPXJ2/IQaG21qDNzpLdR6GpaYAAADeSnnLgYq189UW5TA/J+UweZ3Lavuluo72BBkAAIB1MaNhDCexzt9QVtsnrcEzRGDqQB4GAACglTGqQMOITmadvyEGj8ph8pCjJA8DAADQ5thUoGGEJ7XO3zCvtk2tQSPKVc4skQAAANomR8MINfkbtlL99Fr+hmmLcpWRh2FXkAEAAMjBjIaxn+A6f0NUp9jXGpMSAaay+nwfawoAACDrOFSgYSInuiiiQkUMOuVvGL8vqQ4yyMMAAADkH38KNEzshBfFLNUVKuRvGJ/IwxDVJC40BQAA0Nm4U6Bhgie9Xk5x0GwbWmTwIg9DBBhONQUAAND5mFOgYcInvy6HWSb5G4Yq8jBEqcpSUwAAAL0Zawo00JTDjPwN21pjME5SnYdhqSkAAIBejTEFGvh+MdT5GyLgYDlFf0UehggwLDQFAADQy7GlQAM/XBD/5G841Bq9EnkYIsAw1xQAAECvx5UCDdx7YdT5G2J2w0et0bmjVOdiUK4SAADo/3hSoIFHL5A6f8M8KYfZhbNUV5NYagoAAGAo3mkCHhO5AKptq/rxc6qrHNC+y2r7pWr3PUEGAABgaMxo4PkXS52/oay2T1qjFRHIOZCHAQAAGPTYUaCBF180df6GGAzvaI21+ZLqZI/yMAAAAMMeMwo08OqLpyj2Up0wUv6G14tylTNLJAAAgNGMFQUaePNFVBRlqktibmiNZ4tylRFgWGgKAABgVGNEgQbWciHV+RtidsO+1nhU5GGIJRLHmgIAABjl+FCggbVeUHU5zDLJ33Cfk1Qne5SHAQAAGO+4UKCBVi6sopilOuAgf0OdhyECDBeaAgAAGP14UKCB1i6uejnFQZpu/obIwxABhlNXAwAAMJmxoEADrV9kdTnMyEnwcSKHfN0c77FlEgAAwOTGgAINZLvY6vwNMQDfHvFhRh6GUrlKAABgsmM/gQayX3R1/oYIOIxpOUXkYSiVqwQAACY/5hNooJML75/8DYcDP5RYJhF5GObOKgAAgEADXV+Adf6GGKQPsRzmUZKHAQAA4MdxnkADvbgQ6/wN8zSMcphnqZ7FsHTmAAAAfvROE9AHkdug2raqHz+nejlCH11W2y/V+9wTZAAAALifQAO9Ug3gI0nkVrV96dHbisDH5+q9fZDsEQAA4HGWTtDfi7MoPqS6OkWX+Rsi4FHKwwAAAPDMsZxAA72/SItiL9UBh5z5G6Jc5cwSCQAAgBeO4QQaGMzFWhRlqktibrS4m6tUBxgWWhwAAODl5GhgMKrBf1m9xHKKkxZ+feRhOIqElIIMAAAAr2dGA8O8cItiq3opq23/jb8qAgyxLONYHgYAAIA1jNcEGhj0BVwHHPaa7blJIyO4sKi20+r6n2tFAACANY7TBBoY1QVdFLupLo+5dc9fX1TbsrrmL7QUAABAO/6/AAMAkb5r6NtcnCQAAAAASUVORK5CYII=;" parent="1" vertex="1">
                    <mxGeometry x="773" y="385" width="42.91" height="17" as="geometry"/>
                </mxCell>
                <mxCell id="251" value="" style="endArrow=classic;html=1;exitX=0.955;exitY=0.502;exitDx=0;exitDy=0;exitPerimeter=0;entryX=0.4;entryY=0.507;entryDx=0;entryDy=0;entryPerimeter=0;" parent="1" target="341" edge="1">
                    <mxGeometry width="50" height="50" relative="1" as="geometry">
                        <mxPoint x="498.86222222222204" y="396.0999999999999" as="sourcePoint"/>
                        <mxPoint x="680" y="395.97749999999996" as="targetPoint"/>
                        <Array as="points"/>
                    </mxGeometry>
                </mxCell>
                <mxCell id="360" style="edgeStyle=none;html=1;exitX=0.5;exitY=0;exitDx=0;exitDy=0;fillColor=#d5e8d4;strokeColor=#82b366;strokeWidth=4;endArrow=none;endFill=0;" parent="1" source="347" edge="1">
                    <mxGeometry relative="1" as="geometry">
                        <mxPoint x="482.5079752604165" y="450.6031988234747" as="targetPoint"/>
                    </mxGeometry>
                </mxCell>
                <mxCell id="347" value="Firewall DNAT Rule" style="shape=table;startSize=25;container=1;collapsible=0;childLayout=tableLayout;strokeColor=#82b366;fontSize=16;fillColor=#d5e8d4;" parent="1" vertex="1">
                    <mxGeometry x="193.33" y="570" width="640" height="94.50003051757812" as="geometry"/>
                </mxCell>
                <mxCell id="348" value="" style="shape=tableRow;horizontal=0;startSize=0;swimlaneHead=0;swimlaneBody=0;strokeColor=inherit;top=0;left=0;bottom=0;right=0;collapsible=0;dropTarget=0;fillColor=none;points=[[0,0.5],[1,0.5]];portConstraint=eastwest;fontSize=16;" parent="347" vertex="1">
                    <mxGeometry y="25" width="640" height="40" as="geometry"/>
                </mxCell>
                <mxCell id="349" value="Source Address" style="shape=partialRectangle;html=1;whiteSpace=wrap;connectable=0;strokeColor=#82b366;overflow=hidden;fillColor=#d5e8d4;top=0;left=0;bottom=0;right=0;pointerEvents=1;fontSize=16;" parent="348" vertex="1">
                    <mxGeometry width="90" height="40" as="geometry">
                        <mxRectangle width="90" height="40" as="alternateBounds"/>
                    </mxGeometry>
                </mxCell>
                <mxCell id="350" value="Destination Address" style="shape=partialRectangle;html=1;whiteSpace=wrap;connectable=0;strokeColor=#82b366;overflow=hidden;fillColor=#d5e8d4;top=0;left=0;bottom=0;right=0;pointerEvents=1;fontSize=16;" parent="348" vertex="1">
                    <mxGeometry x="90" width="120" height="40" as="geometry">
                        <mxRectangle width="120" height="40" as="alternateBounds"/>
                    </mxGeometry>
                </mxCell>
                <mxCell id="351" value="Destination&lt;br&gt;Port" style="shape=partialRectangle;html=1;whiteSpace=wrap;connectable=0;strokeColor=#82b366;overflow=hidden;fillColor=#d5e8d4;top=0;left=0;bottom=0;right=0;pointerEvents=1;fontSize=16;" parent="348" vertex="1">
                    <mxGeometry x="210" width="120" height="40" as="geometry">
                        <mxRectangle width="120" height="40" as="alternateBounds"/>
                    </mxGeometry>
                </mxCell>
                <mxCell id="358" value="Translated&lt;br&gt;Address" style="shape=partialRectangle;html=1;whiteSpace=wrap;connectable=0;strokeColor=#82b366;overflow=hidden;fillColor=#d5e8d4;top=0;left=0;bottom=0;right=0;pointerEvents=1;fontSize=16;" parent="348" vertex="1">
                    <mxGeometry x="330" width="160" height="40" as="geometry">
                        <mxRectangle width="160" height="40" as="alternateBounds"/>
                    </mxGeometry>
                </mxCell>
                <mxCell id="356" value="Translated&lt;br&gt;Port" style="shape=partialRectangle;html=1;whiteSpace=wrap;connectable=0;strokeColor=#82b366;overflow=hidden;fillColor=#d5e8d4;top=0;left=0;bottom=0;right=0;pointerEvents=1;fontSize=16;" parent="348" vertex="1">
                    <mxGeometry x="490" width="150" height="40" as="geometry">
                        <mxRectangle width="150" height="40" as="alternateBounds"/>
                    </mxGeometry>
                </mxCell>
                <mxCell id="352" style="shape=tableRow;horizontal=0;startSize=0;swimlaneHead=0;swimlaneBody=0;strokeColor=inherit;top=0;left=0;bottom=0;right=0;collapsible=0;dropTarget=0;fillColor=none;points=[[0,0.5],[1,0.5]];portConstraint=eastwest;fontSize=16;" parent="347" vertex="1">
                    <mxGeometry y="65" width="640" height="30" as="geometry"/>
                </mxCell>
                <mxCell id="353" value="ANY" style="shape=partialRectangle;html=1;whiteSpace=wrap;connectable=0;strokeColor=inherit;overflow=hidden;fillColor=none;top=0;left=0;bottom=0;right=0;pointerEvents=1;fontSize=16;" parent="352" vertex="1">
                    <mxGeometry width="90" height="30" as="geometry">
                        <mxRectangle width="90" height="30" as="alternateBounds"/>
                    </mxGeometry>
                </mxCell>
                <mxCell id="354" value="192.168.0.68" style="shape=partialRectangle;html=1;whiteSpace=wrap;connectable=0;strokeColor=inherit;overflow=hidden;fillColor=none;top=0;left=0;bottom=0;right=0;pointerEvents=1;fontSize=16;" parent="352" vertex="1">
                    <mxGeometry x="90" width="120" height="30" as="geometry">
                        <mxRectangle width="120" height="30" as="alternateBounds"/>
                    </mxGeometry>
                </mxCell>
                <mxCell id="355" value="10080" style="shape=partialRectangle;html=1;whiteSpace=wrap;connectable=0;strokeColor=inherit;overflow=hidden;fillColor=none;top=0;left=0;bottom=0;right=0;pointerEvents=1;fontSize=16;" parent="352" vertex="1">
                    <mxGeometry x="210" width="120" height="30" as="geometry">
                        <mxRectangle width="120" height="30" as="alternateBounds"/>
                    </mxGeometry>
                </mxCell>
                <mxCell id="359" value="192.168.0.132" style="shape=partialRectangle;html=1;whiteSpace=wrap;connectable=0;strokeColor=inherit;overflow=hidden;fillColor=none;top=0;left=0;bottom=0;right=0;pointerEvents=1;fontSize=16;" parent="352" vertex="1">
                    <mxGeometry x="330" width="160" height="30" as="geometry">
                        <mxRectangle width="160" height="30" as="alternateBounds"/>
                    </mxGeometry>
                </mxCell>
                <mxCell id="357" value="80" style="shape=partialRectangle;html=1;whiteSpace=wrap;connectable=0;strokeColor=inherit;overflow=hidden;fillColor=none;top=0;left=0;bottom=0;right=0;pointerEvents=1;fontSize=16;" parent="352" vertex="1">
                    <mxGeometry x="490" width="150" height="30" as="geometry">
                        <mxRectangle width="150" height="30" as="alternateBounds"/>
                    </mxGeometry>
                </mxCell>
                <mxCell id="362" value="NIC" style="image;aspect=fixed;html=1;points=[];align=center;fontSize=12;image=img/lib/azure2/networking/Network_Interfaces.svg;fontColor=default;labelBackgroundColor=none;" vertex="1" parent="1">
                    <mxGeometry x="676" y="402" width="34" height="30" as="geometry"/>
                </mxCell>
            </root>
        </mxGraphModel>
    </diagram>
</mxfile>